<mxfile host="app.diagrams.net" modified="2024-05-03T01:56:32.674Z" agent="Mozilla/5.0 (Windows NT 10.0; Win64; x64) AppleWebKit/537.36 (KHTML, like Gecko) Chrome/123.0.0.0 Safari/537.36" version="24.2.3" etag="zBPSQS4XTIzhmNekB6ir" type="github">
  <diagram name="PÃ¡gina-1" id="54W2DPEnE201FIPC43RC">
    <mxGraphModel>
      <root>
        <mxCell id="0" />
        <mxCell id="1" parent="0" />
      </root>
    </mxGraphModel>
  </diagram>
</mxfile>
